<svg width="20" height="20" viewBox="0 0 20 20" fill="none" xmlns="http://www.w3.org/2000/svg">
<path fill-rule="evenodd" clip-rule="evenodd" d="M10 19.6C15.302 19.6 19.6 15.302 19.6 10C19.6 4.69809 15.302 0.400024 10 0.400024C4.69809 0.400024 0.400024 4.69809 0.400024 10C0.400024 15.302 4.69809 19.6 10 19.6ZM8.44855 6.7515C7.97992 6.28287 7.22013 6.28287 6.7515 6.7515C6.28287 7.22013 6.28287 7.97992 6.7515 8.44855L8.30297 10L6.7515 11.5515C6.28287 12.0201 6.28287 12.7799 6.7515 13.2486C7.22012 13.7172 7.97992 13.7172 8.44855 13.2486L10 11.6971L11.5515 13.2486C12.0201 13.7172 12.7799 13.7172 13.2486 13.2486C13.7172 12.7799 13.7172 12.0201 13.2486 11.5515L11.6971 10L13.2486 8.44855C13.7172 7.97992 13.7172 7.22013 13.2486 6.7515C12.7799 6.28287 12.0201 6.28287 11.5515 6.7515L10 8.30297L8.44855 6.7515Z" fill="white" fill-opacity="0.6"/>
</svg>
