<svg width="24" height="18" viewBox="0 0 24 18" fill="none" xmlns="http://www.w3.org/2000/svg">
<path d="M12 11.4C13.3255 11.4 14.4 10.3255 14.4 9.00001C14.4 7.67452 13.3255 6.60001 12 6.60001C10.6745 6.60001 9.60001 7.67452 9.60001 9.00001C9.60001 10.3255 10.6745 11.4 12 11.4Z" fill="white"/>
<path fill-rule="evenodd" clip-rule="evenodd" d="M0.549316 9.00005C2.07842 4.1315 6.62678 0.600006 12 0.600006C17.3731 0.600006 21.9215 4.13146 23.4506 8.99996C21.9215 13.8685 17.3731 17.4 11.9999 17.4C6.62679 17.4 2.07845 13.8686 0.549316 9.00005ZM16.8 9.00001C16.8 11.651 14.651 13.8 12 13.8C9.34904 13.8 7.20001 11.651 7.20001 9.00001C7.20001 6.34904 9.34904 4.20001 12 4.20001C14.651 4.20001 16.8 6.34904 16.8 9.00001Z" fill="white"/>
</svg>
